<?xml version="1.0" encoding="UTF-8"?>
<svg width="253px" height="85px" viewBox="0 0 253 85" version="1.1" xmlns="http://www.w3.org/2000/svg" xmlns:xlink="http://www.w3.org/1999/xlink">
    <!-- Generator: Sketch 39.1 (31720) - http://www.bohemiancoding.com/sketch -->
    <title>logo</title>
    <desc>Created with Sketch.</desc>
    <defs></defs>
    <g id="Symbols" stroke="none" stroke-width="1" fill="none" fill-rule="evenodd">
        <g id="logo">
            <path d="M28.203125,69.2578125 L28.203125,27.3046875 L42.421875,27.3046875 L42.421875,15.9375 L0,15.9375 L0,27.3046875 L14.21875,27.3046875 L14.21875,69.2578125 L28.203125,69.2578125 Z M93.3203125,33.7890625 C93.125,24.21875 85.7421875,15 70.9765625,15 C55.3515625,15 46.875,25.1171875 46.875,39.296875 L46.875,45.546875 C46.875,59.1796875 54.0234375,70.1953125 70.8984375,70.1953125 C86.7578125,70.1953125 93.359375,60.390625 93.359375,49.9609375 L93.359375,39.6875 L71.7578125,39.6875 L71.7578125,49.296875 L80.1953125,49.296875 L80.1953125,51.09375 C80.1953125,55.1171875 77.265625,58.828125 71.2109375,58.828125 C63.515625,58.828125 61.015625,52.8515625 61.015625,45.46875 L61.015625,39.453125 C61.015625,31.09375 64.4921875,26.3671875 70.859375,26.3671875 C76.2109375,26.3671875 79.296875,29.7265625 79.765625,33.7890625 L93.3203125,33.7890625 Z M117.109375,69.2578125 L117.109375,15.9375 L103.125,15.9375 L103.125,69.2578125 L117.109375,69.2578125 Z M143.046875,69.2578125 L143.046875,49.6875 L163.28125,49.6875 L163.28125,38.9453125 L143.046875,38.9453125 L143.046875,27.0703125 L165.351562,27.0703125 L165.351562,15.9375 L129.0625,15.9375 L129.0625,69.2578125 L143.046875,69.2578125 Z" id="TGIF" fill="#373B40"></path>
            <path d="M248.330636,69.1199471 C250.796271,69.1199471 252.791174,67.1219405 252.791174,64.6572745 L252.791174,20.1626726 C252.791174,17.6966289 250.794123,15.7 248.330636,15.7 L180.460537,15.7 C177.994903,15.7 176,17.6980066 176,20.1626726 L176,64.6572745 C176,67.1233182 177.997051,69.1199471 180.460537,69.1199471 L194.919565,69.1199471 L194.919565,80.2900516 C194.919565,84.5918839 197.702412,85.9879368 201.148157,83.3985066 L220.148585,69.1199471 L248.330636,69.1199471 Z" id="Combined-Shape" fill="#42A2E0"></path>
        </g>
    </g>
</svg>